<svg width="80" height="60" viewBox="0 0 80 60" fill="none" xmlns="http://www.w3.org/2000/svg">
<path d="M22.1532 26.6335L33.8591 24.8308C34.191 24.7804 34.4754 24.5696 34.6237 24.2662L39.7732 13.5984L45.1064 24.1764C45.2575 24.4771 45.5472 24.6825 45.8778 24.726L57.6164 26.3314L49.2029 34.6714C48.9649 34.9081 48.8587 35.2455 48.9186 35.5748L51.0192 47.233L40.4889 41.8114C40.1882 41.6563 39.8344 41.6617 39.5406 41.8182L29.1027 47.4207L31.0047 35.7285C31.0591 35.3979 30.9462 35.0605 30.7027 34.8278L22.1519 26.6335H22.1532Z" fill="#FF5959"/>
<path d="M29.3 2.51831C29.3 3.07068 29.783 3.53869 30.3544 3.53869C30.9177 3.53869 31.3748 3.0802 31.3748 2.51831C31.3748 1.95642 30.9177 1.49792 30.3544 1.49792C29.7327 1.49792 29.3 1.94553 29.3 2.51831Z" fill="#3E4651"/>
<path d="M17.356 47.3378C17.9193 47.3378 18.3764 46.8793 18.3764 46.3174C18.3764 45.7555 17.9193 45.297 17.356 45.297C16.7343 45.297 16.3016 45.7446 16.3016 46.3174C16.3016 46.8698 16.7846 47.3378 17.356 47.3378Z" fill="#3E4651"/>
<path d="M49.4016 1.49792C48.8397 1.49792 48.3812 1.95642 48.3812 2.51831C48.3812 3.0802 48.8397 3.53869 49.4016 3.53869C50.0234 3.53869 50.456 3.09109 50.456 2.51831C50.456 1.96594 49.9744 1.49792 49.4016 1.49792Z" fill="#3E4651"/>
<path d="M79.703 23.4348C79.5791 23.0648 79.2621 22.8008 78.873 22.7478L69.1957 21.4254L64.7999 12.7045C64.6244 12.3575 64.2761 12.1426 63.8883 12.1426C63.4884 12.1467 63.1387 12.3671 62.97 12.7194L58.8463 21.2567C58.6014 21.7628 58.815 22.3736 59.3225 22.6199C59.5687 22.7396 59.8463 22.7559 60.102 22.6634C60.3592 22.575 60.566 22.39 60.6843 22.1451L63.9074 15.469L67.6175 22.8226C67.7672 23.1219 68.057 23.3287 68.3903 23.3736L76.5506 24.4892L70.7004 30.2891C70.4623 30.5245 70.3562 30.8632 70.4147 31.1938L71.8759 39.2998L64.5536 35.5298C64.2543 35.3747 63.8992 35.3788 63.604 35.538L56.347 39.4331L57.1538 34.4795C57.2436 33.9244 56.8654 33.3979 56.3103 33.3081C56.2518 33.2972 56.1946 33.2931 56.1361 33.2931C55.9266 33.2931 55.7239 33.3571 55.5511 33.4809C55.3294 33.64 55.1824 33.8781 55.1389 34.1516L54.0001 41.146C53.9362 41.531 54.0954 41.912 54.4151 42.1405C54.7253 42.3609 55.1539 42.3909 55.4913 42.2086L64.0965 37.5896L72.7793 42.0603C73.129 42.2412 73.5412 42.2058 73.8541 41.9746C74.1684 41.7419 74.3221 41.3582 74.2514 40.9732L72.5194 31.3612L79.4553 24.4824C79.7329 24.2076 79.8281 23.8049 79.7057 23.4335L79.703 23.4348Z" fill="#3E4651"/>
<path d="M40.8929 58.9796C40.8929 58.4272 40.4113 57.9592 39.8385 57.9592C39.2766 57.9592 38.8181 58.4177 38.8181 58.9796C38.8181 59.5415 39.2766 60 39.8385 60C40.4603 60 40.8929 59.5524 40.8929 58.9796Z" fill="#3E4651"/>
<path d="M58.3074 53.5416C58.3074 52.9893 57.8258 52.5212 57.2531 52.5212C56.6912 52.5212 56.2327 52.9797 56.2327 53.5416C56.2327 54.1035 56.6912 54.562 57.2531 54.562C57.8748 54.562 58.3074 54.1144 58.3074 53.5416Z" fill="#3E4651"/>
<path d="M50.4574 57.4817C50.4574 56.9293 49.9757 56.4613 49.403 56.4613C48.8411 56.4613 48.3826 56.9198 48.3826 57.4817C48.3826 58.0436 48.8411 58.5021 49.403 58.5021C50.0247 58.5021 50.4574 58.0545 50.4574 57.4817Z" fill="#3E4651"/>
<path d="M30.3544 58.5021C30.9177 58.5021 31.3748 58.0436 31.3748 57.4817C31.3748 56.9198 30.9177 56.4613 30.3544 56.4613C29.7327 56.4613 29.3 56.9089 29.3 57.4817C29.3 58.0341 29.783 58.5021 30.3544 58.5021Z" fill="#3E4651"/>
<path d="M38.8617 1.02039C38.8617 1.57275 39.3447 2.04077 39.9161 2.04077C40.4793 2.04077 40.9365 1.58228 40.9365 1.02039C40.9365 0.458493 40.4793 0 39.9161 0C39.2943 0 38.8617 0.447609 38.8617 1.02039Z" fill="#3E4651"/>
<path d="M57.2531 5.43799C56.6912 5.43799 56.2327 5.89648 56.2327 6.45837C56.2327 7.02027 56.6912 7.47876 57.2531 7.47876C57.8748 7.47876 58.3074 7.03115 58.3074 6.45837C58.3074 5.90601 57.8258 5.43799 57.2531 5.43799Z" fill="#3E4651"/>
<path d="M62.4585 47.3378C63.0217 47.3378 63.4788 46.8793 63.4788 46.3174C63.4788 45.7555 63.0217 45.297 62.4585 45.297C61.8367 45.297 61.4041 45.7446 61.4041 46.3174C61.4041 46.8698 61.887 47.3378 62.4585 47.3378Z" fill="#3E4651"/>
<path d="M22.5029 54.562C23.0661 54.562 23.5233 54.1035 23.5233 53.5416C23.5233 52.9797 23.0661 52.5212 22.5029 52.5212C21.8811 52.5212 21.4485 52.9688 21.4485 53.5416C21.4485 54.094 21.9315 54.562 22.5029 54.562Z" fill="#3E4651"/>
<path d="M25.3436 42.1405C25.6606 41.9133 25.8198 41.5323 25.7572 41.1473L24.6185 34.1529C24.5749 33.8808 24.4266 33.6441 24.2021 33.4835C23.9817 33.3244 23.7151 33.2659 23.4484 33.308C22.8906 33.3992 22.5124 33.9257 22.6035 34.4808L23.4103 39.4344L16.152 35.5393C15.8581 35.3801 15.5003 35.3801 15.2023 35.5311L7.88007 39.3011L9.34126 31.1952C9.40112 30.8646 9.29364 30.5258 9.05555 30.2904L3.2067 24.4906L11.3671 23.3749C11.699 23.33 11.9888 23.1219 12.1398 22.8239L15.8486 15.4704L19.073 22.1464C19.1914 22.3926 19.3982 22.575 19.658 22.6661C19.9138 22.7559 20.1927 22.7396 20.4349 22.6212C20.9424 22.375 21.1546 21.7654 20.9111 21.258L16.7873 12.7208C16.6173 12.3684 16.269 12.148 15.8772 12.1439C15.5194 12.1044 15.1357 12.3521 14.9575 12.7058L10.5603 21.4267L10.3834 21.4525L0.882948 22.7491C0.495201 22.8022 0.176841 23.0647 0.0543951 23.4362C-0.0707721 23.8062 0.0258244 24.2089 0.30473 24.4851L7.23927 31.3639L5.50733 40.9759C5.43795 41.3609 5.59168 41.7446 5.9046 41.9772C6.21888 42.2085 6.63112 42.2425 6.97941 42.0629L15.6636 37.5923L24.2702 42.2112C24.5981 42.3922 25.0334 42.3663 25.3463 42.1419L25.3436 42.1405Z" fill="#3E4651"/>
<path d="M21.4471 6.45837C21.4471 7.01074 21.9301 7.47876 22.5015 7.47876C23.0648 7.47876 23.5219 7.02027 23.5219 6.45837C23.5219 5.89648 23.0648 5.43799 22.5015 5.43799C21.8798 5.43799 21.4471 5.8856 21.4471 6.45837Z" fill="#3E4651"/>
<path d="M40.0317 43.8724L40.1896 43.9541L51.9226 49.9947C52.0736 50.0723 52.241 50.1077 52.3947 50.1077C52.7716 50.1335 52.9906 49.9825 53.1199 49.8573C53.3226 49.6641 53.4382 49.3839 53.4382 49.0873C53.4382 48.958 53.4137 48.8315 53.3661 48.7104L51.0206 35.7434L60.5183 26.3245C60.7918 26.0538 60.8898 25.6429 60.7687 25.2783C60.6449 24.9055 60.3279 24.6416 59.9388 24.5885L46.686 22.7777L40.6644 10.8337C40.4889 10.4882 40.1406 10.2732 39.7528 10.2732C39.3528 10.2773 39.0032 10.4977 38.8345 10.8501L33.0169 22.896L32.8401 22.9232L19.7955 24.9327C19.4091 24.9926 19.0962 25.262 18.9778 25.6347C18.8594 26.0075 18.9615 26.4075 19.2444 26.6783L28.9041 35.9338L26.7545 49.1363C26.6905 49.5213 26.8497 49.9022 27.1694 50.1308C27.481 50.3539 27.9136 50.3784 28.2442 50.2002L40.0304 43.8752L40.0317 43.8724ZM22.1519 26.6334L33.8577 24.8307C34.1897 24.7803 34.474 24.5695 34.6223 24.2661L39.7719 13.5983L45.1051 24.1763C45.2561 24.477 45.5459 24.6824 45.8765 24.7259L57.615 26.3313L49.2016 34.6713C48.9635 34.908 48.8574 35.2454 48.9172 35.5747L51.0179 47.2329L40.4875 41.8113C40.1868 41.6562 39.8331 41.6616 39.5392 41.8181L29.1014 47.4206L31.0034 35.7284C31.0578 35.3978 30.9449 35.0604 30.7013 34.8277L22.1505 26.6334H22.1519Z" fill="#3E4651"/>
</svg>
