<svg width="68" height="60" viewBox="0 0 68 60" fill="none" xmlns="http://www.w3.org/2000/svg">
<g clip-path="url(#clip0_25_343)">
<path d="M34.0035 14.4215L33.8602 14.4899L33.7182 14.4202C31.9774 13.5709 26.2964 10.4471 26.2964 5.94666C26.2964 3.82991 27.9333 1.97217 29.7976 1.97217C31.42 1.97217 32.5901 3.11469 32.907 4.24406C33.0253 4.66741 33.4158 4.96323 33.8562 4.96323C34.2966 4.96323 34.6871 4.66741 34.8068 4.24406C35.1223 3.11469 36.2911 1.97217 37.9148 1.97217C39.7805 1.97217 41.416 3.82991 41.416 5.94666C41.416 10.5115 35.7429 13.588 34.0035 14.4215Z" fill="#FF5959"/>
<path d="M12.7821 14.6673L12.6361 14.7396L12.4915 14.666C11.2596 14.0494 7.2417 11.7946 7.2417 8.6405C7.2417 7.21925 8.36713 5.92554 9.60431 5.92554C10.6916 5.92554 11.4739 6.68678 11.6842 7.4375C11.8026 7.86085 12.1931 8.15667 12.6335 8.15667C13.0739 8.15667 13.4631 7.86085 13.5841 7.4375C13.7944 6.68678 14.5754 5.92554 15.6614 5.92554C16.8972 5.92554 18.024 7.21925 18.024 8.6405C18.024 10.7993 16.0663 13.0515 12.7847 14.666L12.7821 14.6673Z" fill="#FF5959"/>
<path d="M55.2301 14.6673L55.0842 14.7396L54.9395 14.666C53.7076 14.0494 49.691 11.7946 49.691 8.6405C49.691 7.21925 50.8165 5.92554 52.0536 5.92554C53.1396 5.92554 53.9219 6.68678 54.1323 7.4375C54.2519 7.86085 54.6424 8.15667 55.0815 8.15667C55.5207 8.15667 55.9124 7.86085 56.0321 7.4375C56.2424 6.68546 57.0247 5.92554 58.1107 5.92554C59.3466 5.92554 60.4733 7.21925 60.4733 8.6405C60.4733 10.7993 58.5143 13.0515 55.2327 14.666L55.2301 14.6673Z" fill="#FF5959"/>
<path d="M37.9148 9.40484e-05C36.4712 9.40484e-05 35.0789 0.594362 34.0955 1.63039L33.8562 1.88019L33.6182 1.63039C32.6334 0.594362 31.2411 9.40484e-05 29.7975 9.40484e-05C26.8301 9.40484e-05 24.3242 2.72294 24.3242 5.94671C24.3242 9.9383 27.7347 13.8734 33.446 16.4726C33.701 16.5896 33.9995 16.5909 34.2572 16.4752C39.975 13.9273 43.3868 9.99089 43.3868 5.9454C43.3868 2.72163 40.8809 -0.0012207 37.9135 -0.0012207L37.9148 9.40484e-05ZM34.0034 14.4216L33.8601 14.49L33.7181 14.4203C31.9774 13.571 26.2963 10.4471 26.2963 5.94671C26.2963 3.82996 27.9332 1.97222 29.7975 1.97222C31.4199 1.97222 32.5901 3.11474 32.9069 4.24411C33.0252 4.66746 33.4157 4.96328 33.8562 4.96328C34.2966 4.96328 34.6871 4.66746 34.8067 4.24411C35.1223 3.11474 36.2911 1.97222 37.9148 1.97222C39.7804 1.97222 41.416 3.82996 41.416 5.94671C41.416 10.5115 35.7428 13.5881 34.0034 14.4216Z" fill="#3E4651"/>
<path d="M15.6586 3.95493C14.616 3.95493 13.6195 4.33752 12.8516 5.03039L12.6308 5.22892L12.4112 5.03039C11.6421 4.33621 10.6442 3.95493 9.60158 3.95493C7.25212 3.95493 5.26685 6.1006 5.26685 8.64202C5.26685 11.7199 7.86742 14.7411 12.2206 16.7238C12.4769 16.8408 12.7754 16.8421 13.0318 16.7264C17.3902 14.7819 19.9921 11.7606 19.9921 8.6407C19.9921 6.09929 18.0068 3.95361 15.6573 3.95361L15.6586 3.95493ZM12.782 14.6675L12.636 14.7398L12.4914 14.6662C11.2595 14.0496 7.2416 11.7948 7.2416 8.6407C7.2416 7.21946 8.36703 5.92574 9.60421 5.92574C10.6915 5.92574 11.4738 6.68698 11.6841 7.4377C11.8025 7.86105 12.193 8.15687 12.6334 8.15687C13.0738 8.15687 13.463 7.86105 13.584 7.4377C13.7943 6.68698 14.5753 5.92574 15.6613 5.92574C16.8971 5.92574 18.0239 7.21946 18.0239 8.6407C18.0239 10.7995 16.0662 13.0517 12.7846 14.6662L12.782 14.6675Z" fill="#3E4651"/>
<path d="M40.9979 59.5122C43.9114 59.1402 46.4988 57.4941 48.1002 54.9934L48.2145 54.8146L48.5314 54.8738C50.5601 55.0329 52.4586 55.117 54.1349 55.117C62.6729 55.117 66.6842 53.0318 67.5453 48.1436C68.1475 44.7252 67.1102 41.7683 64.624 39.8173C63.8128 39.1783 62.9069 38.6103 61.934 38.1278L61.6382 37.9805L61.7867 37.6847C62.6058 36.061 63.0384 34.2703 63.0384 32.5072C63.0384 27.6571 59.691 24.1362 55.0775 24.1362C50.4641 24.1362 47.1167 27.6571 47.1167 32.5072C47.1167 34.2282 47.5756 36.0124 48.442 37.6637L48.5932 37.9529L48.304 38.1068C46.7499 38.9324 45.1578 40.1183 44.67 40.5325L44.478 40.6955L44.2716 40.5548C43.4578 40 42.5808 39.4991 41.6671 39.0705L41.3476 38.9206L41.5211 38.6129C42.6886 36.5409 43.304 34.2716 43.304 32.051C43.304 26.2858 39.3295 22.1023 33.8535 22.1023C28.3776 22.1023 24.4031 26.2871 24.4031 32.051C24.4031 34.2217 24.9711 36.4305 26.0439 38.4381L26.2109 38.7497L25.8874 38.893C24.9448 39.3098 24.035 39.8041 23.183 40.3602L22.9858 40.4904L22.7991 40.3432C22.0365 39.7397 20.6889 38.7917 19.4018 38.1094L19.1125 37.9569L19.265 37.6663C20.1301 36.0137 20.589 34.2309 20.589 32.5099C20.589 27.6597 17.2416 24.1388 12.6282 24.1388C8.01471 24.1388 4.66735 27.6597 4.66735 32.5099C4.66735 34.2729 5.10122 36.0636 5.92031 37.6874L6.06887 37.9832L5.77174 38.1304C4.80277 38.6103 3.89822 39.1783 3.08176 39.8186C0.595565 41.7697 -0.44046 44.7265 0.161697 48.1449C1.02286 53.0331 5.03285 55.1183 13.5708 55.1183C15.2472 55.1183 17.147 55.0342 19.2164 54.8685L19.5714 54.7778L19.695 54.9698C20.1932 55.7468 20.756 56.4239 21.366 56.98C22.853 58.3355 24.6858 59.1993 26.6697 59.4807C31.203 60.1381 35.9006 60.1735 40.5114 59.5819L40.9913 59.5135L40.9979 59.5122ZM55.0802 26.111C58.6063 26.111 61.0689 28.7418 61.0689 32.5099C61.0689 36.5422 58.0463 40.6521 55.0802 40.6521C53.6839 40.6521 52.0628 39.5898 50.8506 37.8793C50.7836 37.7754 50.7612 37.7386 50.7415 37.7189C49.6647 36.1162 49.0915 34.2835 49.0915 32.5099C49.0915 28.7431 51.554 26.111 55.0802 26.111ZM46.3884 41.6895C47.1904 41.0847 48.4249 40.2485 49.4846 39.7186L49.7147 39.6043L49.8816 39.7988C51.416 41.5935 53.3105 42.6229 55.0802 42.6229C56.9537 42.6229 58.8246 41.6408 60.351 39.8567L60.5127 39.6674L60.7389 39.7726C61.7907 40.2603 62.6637 40.7823 63.4078 41.3673C65.823 43.2632 65.9361 45.9138 65.6034 47.8017C65.1104 50.6074 63.2737 53.1357 54.1244 53.1357C52.7675 53.1357 51.2503 53.0805 49.5516 52.9621L49.1414 52.9332L49.2611 52.5388C49.4412 51.9511 49.5648 51.3673 49.6332 50.8046C50.0197 47.594 48.7983 44.3768 46.3673 42.197L46.0702 41.9301L46.3884 41.6895ZM33.8575 24.0744C38.2619 24.0744 41.3358 27.3547 41.3358 32.051C41.3358 36.9564 37.4914 42.1444 33.8575 42.1444C30.0841 42.1444 26.3792 37.1444 26.3792 32.051C26.3792 27.3547 29.4557 24.0744 33.8575 24.0744ZM12.6321 26.111C16.1583 26.111 18.6208 28.7418 18.6208 32.5099C18.6208 34.2848 18.0476 36.1175 17.0089 37.6716C16.9537 37.736 16.93 37.7741 16.9064 37.8123C15.6508 39.5885 14.0297 40.6521 12.6321 40.6521C9.66603 40.6521 6.64342 36.5435 6.64342 32.5099C6.64342 28.7431 9.10595 26.111 12.6321 26.111ZM18.2882 51.5251L18.3881 51.9458C18.4157 52.0628 18.4578 52.1759 18.4972 52.289C18.5248 52.3692 18.5524 52.4481 18.5787 52.5283L18.701 52.924L18.2882 52.9529C16.5409 53.0778 14.9816 53.1357 13.5932 53.1357C4.44779 53.1357 2.60845 50.6087 2.11279 47.8004C1.78016 45.9124 1.89059 43.2645 4.30842 41.366C5.05257 40.781 5.92557 40.2603 6.97605 39.7726L7.20351 39.6674L7.36522 39.8567C8.89033 41.6395 10.7625 42.6229 12.6347 42.6229C14.4057 42.6229 16.3003 41.5935 17.8346 39.7988L18.0016 39.6043L18.2316 39.7186C19.3834 40.2945 20.5969 41.1491 21.0649 41.4909L21.3818 41.7223L21.0978 41.9945C18.5419 44.4452 17.4651 48.0976 18.2895 51.5251H18.2882ZM33.9482 58.0305C31.6027 58.0305 29.265 57.8635 26.9563 57.5283C25.3642 57.3021 23.893 56.6093 22.7005 55.522C21.5119 54.4399 20.685 53.0437 20.3063 51.4844L20.2064 51.0636C19.4728 48.016 20.589 44.8028 23.0502 42.8793C24.2821 41.913 25.6495 41.1189 27.1154 40.5167L27.3402 40.4247L27.4941 40.6127C29.3216 42.8399 31.6408 44.1178 33.8588 44.1178C35.9597 44.1178 38.208 42.8938 40.025 40.7586L40.184 40.5732L40.4076 40.6705C41.7512 41.2569 42.9989 41.9997 44.1125 42.878L44.666 43.3158C46.8538 45.0302 48.0081 47.8109 47.6755 50.5719C47.2364 54.2204 44.3834 57.0944 40.7376 57.5598L40.255 57.6295C38.1541 57.8977 36.0478 58.0318 33.9495 58.0318L33.9482 58.0305Z" fill="#3E4651"/>
<path d="M58.1081 3.95493C57.0655 3.95493 56.0676 4.33752 55.2998 5.03039L55.0789 5.22892L54.8594 5.03039C54.0915 4.33621 53.095 3.95493 52.051 3.95493C49.7016 3.95493 47.7163 6.1006 47.7163 8.64202C47.7163 11.7198 50.3169 14.7411 54.67 16.7238C54.9238 16.8395 55.2275 16.8395 55.4786 16.7264C59.8383 14.7819 62.4415 11.7606 62.4415 8.6407C62.4415 6.09929 60.4562 3.95361 58.1068 3.95361L58.1081 3.95493ZM55.2301 14.6675L55.0842 14.7398L54.9396 14.6662C53.7076 14.0496 49.6911 11.7948 49.6911 8.6407C49.6911 7.21946 50.8165 5.92574 52.0537 5.92574C53.1397 5.92574 53.9219 6.68698 54.1323 7.4377C54.2519 7.86105 54.6424 8.15687 55.0815 8.15687C55.5207 8.15687 55.9125 7.86105 56.0321 7.4377C56.2425 6.68567 57.0248 5.92574 58.1107 5.92574C59.3466 5.92574 60.4733 7.21946 60.4733 8.6407C60.4733 10.7995 58.5144 13.0517 55.2327 14.6662L55.2301 14.6675Z" fill="#3E4651"/>
</g>
<defs>
<clipPath id="clip0_25_343">
<rect width="67.7123" height="60" fill="white"/>
</clipPath>
</defs>
</svg>
