<svg width="53" height="60" viewBox="0 0 53 60" fill="none" xmlns="http://www.w3.org/2000/svg">
<path d="M14.8549 41.8407C14.2422 40.3682 13.9321 38.8141 13.9321 37.2206C13.9321 31.0143 18.5844 25.8493 24.7524 25.207L25.0933 25.1711V36.6745L14.9859 42.1569L14.8549 41.8407Z" fill="#FF5959"/>
<path d="M20.6127 48.0282L20.3113 47.8652C18.6214 46.956 17.1501 45.6366 16.0593 44.0505L15.8654 43.7676L24.1952 39.2512L20.614 48.0282H20.6127Z" fill="#FF5959"/>
<path d="M33.1488 46.9449C31.0549 48.4866 28.588 49.3007 26.0123 49.3007C24.8869 49.3007 23.7529 49.1364 22.6411 48.8128L22.3125 48.7164L26.31 38.9141L33.4231 46.7411L33.1476 46.9437L33.1488 46.9449Z" fill="#FF5959"/>
<path d="M38.0247 38.4791C37.7628 40.9955 36.7202 43.3389 35.0105 45.2525L34.7819 45.5082L28.0852 38.1382H38.0593L38.0247 38.4791Z" fill="#FF5959"/>
<path d="M38.0605 36.3039H26.929V25.1724L27.2687 25.2082C32.9141 25.795 37.4367 30.3175 38.0247 35.963L38.0593 36.3039H38.0605Z" fill="#FF5959"/>
<path d="M26.0123 23.3069C18.3397 23.3069 12.0975 29.549 12.0975 37.2216C12.0975 39.5218 12.6744 41.8035 13.7665 43.822L13.7936 43.8875C15.3539 46.6929 17.7986 48.8782 20.7164 50.0851L20.7621 50.1061L20.8091 50.1185C22.4854 50.7967 24.2322 51.1376 26.0111 51.1376C29.4156 51.1376 32.7016 49.8764 35.2637 47.5848L35.4169 47.4477C38.2878 44.7955 39.9246 41.0734 39.9246 37.2229C39.9246 29.5502 33.6825 23.3081 26.0098 23.3081L26.0123 23.3069ZM14.856 41.8405C14.2433 40.368 13.9332 38.814 13.9332 37.2204C13.9332 31.0141 18.5855 25.8492 24.7535 25.2068L25.0944 25.171V36.6744L14.987 42.1568L14.856 41.8405ZM20.6127 48.0283L20.3112 47.8653C18.6213 46.9561 17.15 45.6367 16.0592 44.0506L15.8653 43.7677L24.1951 39.2513L20.6139 48.0283H20.6127ZM33.1488 46.9462C31.0549 48.4879 28.588 49.3019 26.0123 49.3019C24.8869 49.3019 23.7529 49.1376 22.6411 48.814L22.3125 48.7176L26.31 38.9153L33.423 46.7423L33.1476 46.9449L33.1488 46.9462ZM38.0246 38.4792C37.7628 40.9956 36.7201 43.339 35.0104 45.2525L34.7819 45.5082L28.0852 38.1383H38.0592L38.0246 38.4792ZM38.0592 36.3038H26.9277V25.1722L27.2674 25.2081C32.9129 25.7948 37.4354 30.3174 38.0234 35.9628L38.058 36.3038H38.0592Z" fill="#3E4651"/>
<path d="M10.2408 16.7229H42.1741C42.6806 16.7229 43.092 16.3115 43.092 15.8051C43.092 15.2986 42.6806 14.8872 42.1741 14.8872H10.2408C9.73558 14.8872 9.32422 15.2986 9.32422 15.8051C9.32422 16.3115 9.73558 16.7229 10.2408 16.7229Z" fill="#3E4651"/>
<path d="M51.7554 9.20815L42.8227 0.275479C42.7548 0.207536 42.6671 0.149475 42.5559 0.0975911L42.4756 0.0704138C42.3953 0.0420012 42.3138 0.0247066 42.2273 0.0197653L42.1235 0L0.916615 0.00617665C0.411365 0.00617665 0 0.417542 0 0.924027V59.0821C0 59.5886 0.411365 60 0.916615 60H51.1056C51.6121 60 52.0235 59.5886 52.0235 59.0821V9.8567L52.3175 9.78258L52.0099 9.80235C52.0037 9.71587 51.9864 9.63558 51.9592 9.55775L52.215 9.35639L51.9321 9.47869C51.8777 9.36133 51.8221 9.27733 51.7542 9.20939L51.7554 9.20815ZM43.0908 3.13897L48.8894 8.93885H43.0908V3.13897ZM50.1878 58.1643H1.83447V1.84188H41.2563V9.8567C41.2563 10.3632 41.6677 10.7746 42.1729 10.7746H50.1878V58.1643Z" fill="#3E4651"/>
<path d="M10.2408 8.90675H26.0123C26.5175 8.90675 26.9289 8.49538 26.9289 7.9889C26.9289 7.48241 26.5175 7.07104 26.0123 7.07104H10.2408C9.73558 7.07104 9.32422 7.48241 9.32422 7.9889C9.32422 8.49538 9.73558 8.90675 10.2408 8.90675Z" fill="#3E4651"/>
</svg>
